<?xml version="1.0" encoding="UTF-8"?>
<svg id="Layer_1" xmlns="http://www.w3.org/2000/svg" version="1.1" viewBox="0 0 1024 1024">
  <!-- Generator: Adobe Illustrator 29.5.1, SVG Export Plug-In . SVG Version: 2.1.0 Build 141)  -->
  <defs>
    <style>
      .st0 {
        fill: #000501;
      }

      .st1 {
        fill: #7b9500;
      }
    </style>
  </defs>
  <path class="st1" d="M818.5,252.7c-50.1,47.3-101.1,80.3-135.5,90.6l-56.3,358.6c-2.3,16-17.2,27.1-33.2,24.7-15-2.2-25.8-15.4-25-30.5l53.5-301.4-188.3,97.4c-14.8,6.4-32-.5-38.4-15.3s.5-32,15.3-38.4h0l192.7-99.3c-39-16.4-94.2-56.4-149-111-86.4-86-138-174.1-115.2-196.8,22.8-22.6,111.2,28.7,197.6,114.7,56.1,55.8,97,112.2,113,151.3,14.6-32,47.5-75,92.2-117.1,73.8-69.6,150.7-109.9,171.8-89.8,21.1,20-21.6,92.7-95.3,162.3"/>
  <path class="st0" d="M445.5,441.5c58.2,58.3,42.5,168.4-35.2,246.1s-187.8,93.4-246.1,35.2c-58.2-58.3-42.5-168.4,35.1-246.1,77.7-77.7,187.8-93.4,246.1-35.2M607.5,644.1c83.3,20.7,126.8,121.1,97,224.2s-121.5,169.9-204.8,149.2-126.8-121.1-97-224.2c29.8-103.1,121.5-169.9,204.8-149.2"/>
</svg>